<svg width="72" height="90" viewBox="0 0 72 90" fill="none" xmlns="http://www.w3.org/2000/svg">
<path d="M36 53.9994C45.9269 53.9994 53.9998 45.9264 53.9998 35.9996C53.9998 26.0727 45.9269 17.9998 36 17.9998C26.0731 17.9998 18.0002 26.0727 18.0002 35.9996C18.0002 45.9264 26.0731 53.9994 36 53.9994ZM36 26.9997C40.9634 26.9997 44.9999 31.0361 44.9999 35.9996C44.9999 40.963 40.9634 44.9995 36 44.9995C31.0365 44.9995 27.0001 40.963 27.0001 35.9996C27.0001 31.0361 31.0365 26.9997 36 26.9997Z" fill="#181717"/>
<path d="M33.39 89.162C34.1516 89.7059 35.0641 89.9983 36 89.9983C36.9359 89.9983 37.8484 89.7059 38.61 89.162C39.978 88.1945 72.1301 64.9793 71.9996 35.9996C71.9996 16.1503 55.8493 0 36 0C16.1507 0 0.000396165 16.1503 0.000396165 35.9771C-0.130102 64.9793 32.022 88.1945 33.39 89.162ZM36 8.9999C50.8903 8.9999 62.9997 21.1093 62.9997 36.0221C63.0942 55.9929 43.2539 73.9252 36 79.8066C28.7506 73.9207 8.9058 55.9839 9.0003 35.9996C9.0003 21.1093 21.1097 8.9999 36 8.9999Z" fill="#181717"/>
</svg>
