<svg width="90" height="90" viewBox="0 0 90 90" fill="none" xmlns="http://www.w3.org/2000/svg">
<path d="M83 90L51.5 58.5C49 60.5 46.125 62.0833 42.875 63.25C39.625 64.4167 36.1667 65 32.5 65C23.4167 65 15.73 61.8533 9.44 55.56C3.15 49.2667 0.00333333 41.58 0 32.5C0 23.4167 3.14667 15.73 9.44 9.44C15.7333 3.15 23.42 0.00333333 32.5 0C41.5833 0 49.2717 3.14667 55.565 9.44C61.8583 15.7333 65.0033 23.42 65 32.5C65 36.1667 64.4167 39.625 63.25 42.875C62.0833 46.125 60.5 49 58.5 51.5L90 83L83 90ZM32.5 55C38.75 55 44.0633 52.8133 48.44 48.44C52.8167 44.0667 55.0033 38.7533 55 32.5C55 26.25 52.8133 20.9383 48.44 16.565C44.0667 12.1917 38.7533 10.0033 32.5 10C26.25 10 20.9383 12.1883 16.565 16.565C12.1917 20.9417 10.0033 26.2533 10 32.5C10 38.75 12.1883 44.0633 16.565 48.44C20.9417 52.8167 26.2533 55.0033 32.5 55Z" fill="#181717"/>
</svg>
