<svg width="90" height="90" viewBox="0 0 90 90" fill="none"
    xmlns="http://www.w3.org/2000/svg">
    <path d="M45 0C50.9674 0 56.6903 2.37053 60.9099 6.5901C65.1295 10.8097 67.5 16.5326 67.5 22.5C67.5 28.4674 65.1295 34.1903 60.9099 38.4099C56.6903 42.6295 50.9674 45 45 45C39.0326 45 33.3097 42.6295 29.0901 38.4099C24.8705 34.1903 22.5 28.4674 22.5 22.5C22.5 16.5326 24.8705 10.8097 29.0901 6.5901C33.3097 2.37053 39.0326 0 45 0ZM45 11.25C42.0163 11.25 39.1548 12.4353 37.0451 14.545C34.9353 16.6548 33.75 19.5163 33.75 22.5C33.75 25.4837 34.9353 28.3452 37.0451 30.4549C39.1548 32.5647 42.0163 33.75 45 33.75C47.9837 33.75 50.8452 32.5647 52.9549 30.4549C55.0647 28.3452 56.25 25.4837 56.25 22.5C56.25 19.5163 55.0647 16.6548 52.9549 14.545C50.8452 12.4353 47.9837 11.25 45 11.25ZM45 50.625C60.0187 50.625 90 58.1063 90 73.125V90H0V73.125C0 58.1063 29.9812 50.625 45 50.625ZM45 61.3125C28.2938 61.3125 10.6875 69.525 10.6875 73.125V79.3125H79.3125V73.125C79.3125 69.525 61.7062 61.3125 45 61.3125Z" fill="#181717"/>
</svg>
